<mxfile host="app.diagrams.net" agent="Mozilla/5.0 (Windows NT 10.0; Win64; x64) AppleWebKit/537.36 (KHTML, like Gecko) Chrome/138.0.0.0 Safari/537.36 Edg/138.0.0.0" version="28.0.4">
  <diagram name="Page-1" id="rviDAmwx4_SjyYcAvq9S">
    <mxGraphModel dx="1418" dy="752" grid="1" gridSize="10" guides="1" tooltips="1" connect="1" arrows="1" fold="1" page="1" pageScale="1" pageWidth="850" pageHeight="1100" math="0" shadow="0">
      <root>
        <mxCell id="0" />
        <mxCell id="1" parent="0" />
        <mxCell id="H7nSlh8jYPqOOne_oAQx-5" style="edgeStyle=orthogonalEdgeStyle;rounded=0;orthogonalLoop=1;jettySize=auto;html=1;exitX=0.5;exitY=1;exitDx=0;exitDy=0;entryX=0.5;entryY=0;entryDx=0;entryDy=0;" parent="1" source="H7nSlh8jYPqOOne_oAQx-1" target="H7nSlh8jYPqOOne_oAQx-3" edge="1">
          <mxGeometry relative="1" as="geometry" />
        </mxCell>
        <mxCell id="H7nSlh8jYPqOOne_oAQx-39" value="&lt;font style=&quot;font-size: 13px;&quot;&gt;Make code changes&lt;/font&gt;" style="edgeLabel;html=1;align=center;verticalAlign=middle;resizable=0;points=[];" parent="H7nSlh8jYPqOOne_oAQx-5" vertex="1" connectable="0">
          <mxGeometry x="-0.35" y="1" relative="1" as="geometry">
            <mxPoint x="-1" y="10" as="offset" />
          </mxGeometry>
        </mxCell>
        <mxCell id="H7nSlh8jYPqOOne_oAQx-1" value="&lt;font style=&quot;font-size: 16px;&quot;&gt;&lt;b&gt;Create feature branch from beta&lt;/b&gt;&lt;/font&gt;" style="rounded=0;whiteSpace=wrap;html=1;fillColor=light-dark(#99FFFF,#99FFFF);fontColor=#ffffff;strokeColor=#006EAF;" parent="1" vertex="1">
          <mxGeometry x="35" y="30" width="180" height="60" as="geometry" />
        </mxCell>
        <mxCell id="H7nSlh8jYPqOOne_oAQx-7" style="edgeStyle=orthogonalEdgeStyle;rounded=0;orthogonalLoop=1;jettySize=auto;html=1;exitX=0.5;exitY=1;exitDx=0;exitDy=0;entryX=0.5;entryY=0;entryDx=0;entryDy=0;" parent="1" source="H7nSlh8jYPqOOne_oAQx-3" target="H7nSlh8jYPqOOne_oAQx-6" edge="1">
          <mxGeometry relative="1" as="geometry" />
        </mxCell>
        <mxCell id="H7nSlh8jYPqOOne_oAQx-3" value="&lt;span style=&quot;font-size: 16px;&quot;&gt;&lt;b&gt;Create your pull request targeting beta&lt;/b&gt;&lt;/span&gt;" style="rounded=0;whiteSpace=wrap;html=1;fillColor=light-dark(#99FFFF,#99FFFF);fontColor=#ffffff;strokeColor=#006EAF;" parent="1" vertex="1">
          <mxGeometry x="40" y="150" width="170" height="60" as="geometry" />
        </mxCell>
        <mxCell id="H7nSlh8jYPqOOne_oAQx-9" style="edgeStyle=orthogonalEdgeStyle;rounded=0;orthogonalLoop=1;jettySize=auto;html=1;exitX=0.5;exitY=1;exitDx=0;exitDy=0;entryX=0.5;entryY=0;entryDx=0;entryDy=0;" parent="1" source="H7nSlh8jYPqOOne_oAQx-6" target="H7nSlh8jYPqOOne_oAQx-8" edge="1">
          <mxGeometry relative="1" as="geometry" />
        </mxCell>
        <mxCell id="H7nSlh8jYPqOOne_oAQx-41" value="On approval" style="edgeLabel;html=1;align=center;verticalAlign=middle;resizable=0;points=[];fontSize=13;" parent="H7nSlh8jYPqOOne_oAQx-9" vertex="1" connectable="0">
          <mxGeometry x="-0.3" y="-2" relative="1" as="geometry">
            <mxPoint y="3" as="offset" />
          </mxGeometry>
        </mxCell>
        <mxCell id="H7nSlh8jYPqOOne_oAQx-6" value="&lt;span style=&quot;font-size: 16px;&quot;&gt;&lt;b&gt;PR gets reviewed and approved (no merging)&lt;/b&gt;&lt;/span&gt;" style="rounded=0;whiteSpace=wrap;html=1;fillColor=light-dark(#99FFFF,#99FFFF);fontColor=#ffffff;strokeColor=#006EAF;" parent="1" vertex="1">
          <mxGeometry x="30" y="240" width="190" height="60" as="geometry" />
        </mxCell>
        <mxCell id="H7nSlh8jYPqOOne_oAQx-11" style="edgeStyle=orthogonalEdgeStyle;rounded=0;orthogonalLoop=1;jettySize=auto;html=1;exitX=0.5;exitY=1;exitDx=0;exitDy=0;entryX=0.5;entryY=0;entryDx=0;entryDy=0;dashed=1;" parent="1" source="H7nSlh8jYPqOOne_oAQx-8" target="H7nSlh8jYPqOOne_oAQx-10" edge="1">
          <mxGeometry relative="1" as="geometry" />
        </mxCell>
        <mxCell id="H7nSlh8jYPqOOne_oAQx-12" value="Every 2 weeks" style="edgeLabel;html=1;align=center;verticalAlign=middle;resizable=0;points=[];fontSize=13;" parent="H7nSlh8jYPqOOne_oAQx-11" vertex="1" connectable="0">
          <mxGeometry x="0.2146" relative="1" as="geometry">
            <mxPoint y="-9" as="offset" />
          </mxGeometry>
        </mxCell>
        <mxCell id="H7nSlh8jYPqOOne_oAQx-8" value="&lt;span style=&quot;font-size: 16px;&quot;&gt;&lt;b&gt;PR automatically gets labelled &quot;ready for beta&quot;&lt;/b&gt;&lt;/span&gt;" style="rounded=0;whiteSpace=wrap;html=1;fillColor=light-dark(#99FF99,#99FF99);fontColor=#ffffff;strokeColor=light-dark(#006EAF,#33FF33);" parent="1" vertex="1">
          <mxGeometry x="20" y="350" width="210" height="60" as="geometry" />
        </mxCell>
        <mxCell id="H7nSlh8jYPqOOne_oAQx-20" style="edgeStyle=orthogonalEdgeStyle;rounded=0;orthogonalLoop=1;jettySize=auto;html=1;exitX=0.5;exitY=1;exitDx=0;exitDy=0;entryX=0.5;entryY=0;entryDx=0;entryDy=0;dashed=1;endArrow=none;endFill=0;" parent="1" source="H7nSlh8jYPqOOne_oAQx-10" target="H7nSlh8jYPqOOne_oAQx-19" edge="1">
          <mxGeometry relative="1" as="geometry" />
        </mxCell>
        <mxCell id="H7nSlh8jYPqOOne_oAQx-22" style="edgeStyle=orthogonalEdgeStyle;rounded=0;orthogonalLoop=1;jettySize=auto;html=1;exitX=1;exitY=0.5;exitDx=0;exitDy=0;entryX=0;entryY=0.5;entryDx=0;entryDy=0;dashed=1;" parent="1" source="H7nSlh8jYPqOOne_oAQx-10" target="H7nSlh8jYPqOOne_oAQx-21" edge="1">
          <mxGeometry relative="1" as="geometry" />
        </mxCell>
        <mxCell id="H7nSlh8jYPqOOne_oAQx-24" value="Every other 2 weeks" style="edgeLabel;html=1;align=center;verticalAlign=middle;resizable=0;points=[];fontSize=13;" parent="H7nSlh8jYPqOOne_oAQx-22" vertex="1" connectable="0">
          <mxGeometry x="0.0982" y="1" relative="1" as="geometry">
            <mxPoint x="7" y="124" as="offset" />
          </mxGeometry>
        </mxCell>
        <mxCell id="H7nSlh8jYPqOOne_oAQx-10" value="&lt;span style=&quot;font-size: 16px;&quot;&gt;&lt;b&gt;Scheduled workflow runs to merge all &quot;ready for beta&quot; PRs into beta&lt;/b&gt;&lt;/span&gt;" style="rounded=0;whiteSpace=wrap;html=1;fillColor=light-dark(#99FF99,#99FF99);fontColor=#ffffff;strokeColor=light-dark(#006EAF,#33FF33);" parent="1" vertex="1">
          <mxGeometry x="40" y="460" width="170" height="100" as="geometry" />
        </mxCell>
        <mxCell id="H7nSlh8jYPqOOne_oAQx-19" value="&lt;font style=&quot;color: light-dark(rgb(0, 0, 0), rgb(0, 0, 0)); font-size: 16px;&quot;&gt;&lt;b style=&quot;&quot;&gt;Offer the master..beta comparison in new notebook form&lt;/b&gt;&lt;/font&gt;" style="rounded=1;whiteSpace=wrap;html=1;strokeColor=light-dark(#000000,#FF66B3);fillColor=light-dark(#FFFFFF,#FFCCFF);" parent="1" vertex="1">
          <mxGeometry x="35" y="610" width="180" height="80" as="geometry" />
        </mxCell>
        <mxCell id="H7nSlh8jYPqOOne_oAQx-37" style="edgeStyle=orthogonalEdgeStyle;rounded=0;orthogonalLoop=1;jettySize=auto;html=1;exitX=0.5;exitY=1;exitDx=0;exitDy=0;entryX=0.5;entryY=0;entryDx=0;entryDy=0;" parent="1" source="H7nSlh8jYPqOOne_oAQx-21" target="H7nSlh8jYPqOOne_oAQx-36" edge="1">
          <mxGeometry relative="1" as="geometry" />
        </mxCell>
        <mxCell id="H7nSlh8jYPqOOne_oAQx-21" value="&lt;span style=&quot;font-size: 16px;&quot;&gt;&lt;b&gt;Scheduled workflow runs to create a new PR for beta branch targeting master&lt;/b&gt;&lt;/span&gt;" style="rounded=0;whiteSpace=wrap;html=1;fillColor=light-dark(#99FF99,#99FF99);fontColor=#ffffff;strokeColor=light-dark(#006EAF,#33FF33);" parent="1" vertex="1">
          <mxGeometry x="377.5" y="30" width="220" height="100" as="geometry" />
        </mxCell>
        <mxCell id="H7nSlh8jYPqOOne_oAQx-30" style="edgeStyle=orthogonalEdgeStyle;rounded=0;orthogonalLoop=1;jettySize=auto;html=1;exitX=0.5;exitY=1;exitDx=0;exitDy=0;entryX=0.5;entryY=0;entryDx=0;entryDy=0;" parent="1" source="H7nSlh8jYPqOOne_oAQx-27" target="H7nSlh8jYPqOOne_oAQx-29" edge="1">
          <mxGeometry relative="1" as="geometry" />
        </mxCell>
        <mxCell id="H7nSlh8jYPqOOne_oAQx-27" value="&lt;span style=&quot;font-size: 16px;&quot;&gt;&lt;b&gt;Workflow creates a tag for the new latest master, with the name following the format &quot;YYYY-MM-DD&quot;&lt;/b&gt;&lt;/span&gt;" style="rounded=0;whiteSpace=wrap;html=1;fillColor=light-dark(#99FF99,#99FF99);fontColor=#ffffff;strokeColor=light-dark(#006EAF,#33FF33);" parent="1" vertex="1">
          <mxGeometry x="377.5" y="410" width="220" height="100" as="geometry" />
        </mxCell>
        <mxCell id="H7nSlh8jYPqOOne_oAQx-32" style="edgeStyle=orthogonalEdgeStyle;rounded=0;orthogonalLoop=1;jettySize=auto;html=1;exitX=0.5;exitY=1;exitDx=0;exitDy=0;entryX=0.5;entryY=0;entryDx=0;entryDy=0;dashed=1;endArrow=none;endFill=0;" parent="1" source="H7nSlh8jYPqOOne_oAQx-29" target="H7nSlh8jYPqOOne_oAQx-31" edge="1">
          <mxGeometry relative="1" as="geometry" />
        </mxCell>
        <mxCell id="H7nSlh8jYPqOOne_oAQx-29" value="&lt;span style=&quot;font-size: 16px;&quot;&gt;&lt;b&gt;Workflow creates a release with the new tag, with auto-generated release notes comparing to the previous tag(meaning previous release)&lt;/b&gt;&lt;/span&gt;" style="rounded=0;whiteSpace=wrap;html=1;fillColor=light-dark(#99FF99,#99FF99);fontColor=#ffffff;strokeColor=light-dark(#006EAF,#33FF33);" parent="1" vertex="1">
          <mxGeometry x="340" y="540" width="295" height="110" as="geometry" />
        </mxCell>
        <mxCell id="H7nSlh8jYPqOOne_oAQx-31" value="&lt;font style=&quot;color: light-dark(rgb(0, 0, 0), rgb(0, 0, 0)); font-size: 16px;&quot;&gt;&lt;b style=&quot;&quot;&gt;Offer the release notes for the latest release in the Zone&#39;s main page&lt;/b&gt;&lt;/font&gt;" style="rounded=1;whiteSpace=wrap;html=1;strokeColor=light-dark(#000000,#FF66B3);fillColor=light-dark(#FFFFFF,#FFCCFF);" parent="1" vertex="1">
          <mxGeometry x="387.5" y="680" width="200" height="100" as="geometry" />
        </mxCell>
        <mxCell id="v79jAWJdI98XLmnQCI-d-2" style="edgeStyle=orthogonalEdgeStyle;rounded=0;orthogonalLoop=1;jettySize=auto;html=1;exitX=0.5;exitY=1;exitDx=0;exitDy=0;entryX=0.5;entryY=0;entryDx=0;entryDy=0;" edge="1" parent="1" source="H7nSlh8jYPqOOne_oAQx-36" target="v79jAWJdI98XLmnQCI-d-1">
          <mxGeometry relative="1" as="geometry" />
        </mxCell>
        <mxCell id="H7nSlh8jYPqOOne_oAQx-36" value="&lt;span style=&quot;font-size: 16px;&quot;&gt;&lt;b&gt;Manually review the new PR and fix any conflicts&lt;/b&gt;&lt;/span&gt;" style="rounded=0;whiteSpace=wrap;html=1;fillColor=light-dark(#99FFFF,#99FFFF);fontColor=#ffffff;strokeColor=#006EAF;" parent="1" vertex="1">
          <mxGeometry x="367.5" y="160" width="240" height="80" as="geometry" />
        </mxCell>
        <mxCell id="v79jAWJdI98XLmnQCI-d-6" style="edgeStyle=orthogonalEdgeStyle;rounded=0;orthogonalLoop=1;jettySize=auto;html=1;exitX=0.5;exitY=1;exitDx=0;exitDy=0;entryX=0.5;entryY=0;entryDx=0;entryDy=0;" edge="1" parent="1" source="v79jAWJdI98XLmnQCI-d-1" target="H7nSlh8jYPqOOne_oAQx-27">
          <mxGeometry relative="1" as="geometry" />
        </mxCell>
        <mxCell id="v79jAWJdI98XLmnQCI-d-7" value="&lt;font style=&quot;font-size: 13px;&quot;&gt;On merge&lt;/font&gt;" style="edgeLabel;html=1;align=center;verticalAlign=middle;resizable=0;points=[];" vertex="1" connectable="0" parent="v79jAWJdI98XLmnQCI-d-6">
          <mxGeometry x="-0.0333" y="-1" relative="1" as="geometry">
            <mxPoint as="offset" />
          </mxGeometry>
        </mxCell>
        <mxCell id="v79jAWJdI98XLmnQCI-d-1" value="&lt;span style=&quot;font-size: 16px;&quot;&gt;&lt;b&gt;Manually merge the PR in master (don&#39;t squash commits)&lt;/b&gt;&lt;/span&gt;" style="rounded=0;whiteSpace=wrap;html=1;fillColor=light-dark(#99FFFF,#99FFFF);fontColor=#ffffff;strokeColor=#006EAF;" vertex="1" parent="1">
          <mxGeometry x="362.5" y="270" width="250" height="80" as="geometry" />
        </mxCell>
      </root>
    </mxGraphModel>
  </diagram>
</mxfile>
